<?xml version="1.0" encoding="UTF-8" standalone="no"?><!DOCTYPE svg PUBLIC "-//W3C//DTD SVG 1.1//EN" "http://www.w3.org/Graphics/SVG/1.1/DTD/svg11.dtd"><svg width="100%" height="100%" viewBox="0 0 90 120" version="1.1" xmlns="http://www.w3.org/2000/svg" xmlns:xlink="http://www.w3.org/1999/xlink" xml:space="preserve" style="fill-rule:evenodd;clip-rule:evenodd;stroke-linecap:round;stroke-linejoin:round;stroke-miterlimit:1.5;"><g><path d="M31.491,69.251l2.981,-8.033l17.975,-0.26l3.027,8.657c-8.226,4.217 -16.221,4.113 -23.983,-0.364Z" style="fill:#ebebeb;stroke:#000;stroke-width:1.81px;"/><ellipse cx="43.304" cy="50.64" rx="15.238" ry="14.463" style="fill:#ebebeb;stroke:#000;stroke-width:2.32px;"/><g><path d="M56.623,42.724c0.027,-0.015 0.054,-0.023 0.082,-0.023c0.027,0 0.054,0.008 0.081,0.023l2.827,0l0.108,14.831l-2.881,-0.09c-0.044,0.044 -0.089,0.066 -0.135,0.066c-0.56,0 -1.014,-3.322 -1.014,-7.415c0,-3.649 0.361,-6.685 0.836,-7.301l0.096,-0.091Z" style="fill:#ebebeb;stroke:#000;stroke-width:1.81px;"/><ellipse cx="59.614" cy="50.113" rx="0.989" ry="7.388" style="fill:#ebebeb;stroke:#000;stroke-width:1.81px;"/></g><g><path d="M30.596,57.57c-0.026,0.016 -0.053,0.025 -0.081,0.025c-0.027,0.001 -0.055,-0.006 -0.082,-0.021l-2.827,0.07l-0.478,-14.823l2.882,0.018c0.044,-0.045 0.088,-0.068 0.134,-0.069c0.56,-0.014 1.096,3.296 1.199,7.387c0.091,3.648 -0.194,6.692 -0.653,7.32l-0.094,0.093Z" style="fill:#ebebeb;stroke:#000;stroke-width:1.81px;"/><path d="M27.606,57.644c-0.546,0.014 -1.072,-3.285 -1.174,-7.361c-0.102,-4.077 0.259,-7.398 0.805,-7.411c0.546,-0.014 1.071,3.285 1.173,7.361c0.102,4.077 -0.258,7.397 -0.804,7.411Z" style="fill:#ebebeb;stroke:#000;stroke-width:1.81px;"/></g><g><path d="M36.241,37.506c-0.015,-0.027 -0.023,-0.054 -0.023,-0.082c0.001,-0.027 0.008,-0.055 0.024,-0.081l0.008,-2.828l14.272,-0.066l-0.095,2.88c0.042,0.045 0.064,0.09 0.064,0.137c-0.002,0.559 -3.201,1.004 -7.139,0.992c-3.512,-0.01 -6.433,-0.379 -7.024,-0.856l-0.087,-0.096Z" style="fill:#ebebeb;stroke:#000;stroke-width:1.81px;"/><path d="M36.25,34.515c0.002,-0.546 3.189,-0.98 7.113,-0.969c3.925,0.012 7.109,0.464 7.108,1.01c-0.002,0.546 -3.189,0.98 -7.114,0.969c-3.924,-0.011 -7.109,-0.464 -7.107,-1.01Z" style="fill:#ebebeb;stroke:#000;stroke-width:1.81px;"/></g><ellipse cx="43.413" cy="51.015" rx="7.87" ry="7.893" style="fill:#ebebeb;stroke:#000;stroke-width:1.81px;"/><path d="M31.502,69.42l-11.584,5.122c12.884,18.123 31.977,18.453 47.034,0.873l-10.885,-5.821" style="fill:#ebebeb;stroke:#000;stroke-width:1.81px;"/><path d="M73.585,26.106c0,0 3.342,2.483 3.74,4.355c0.568,2.673 -0.201,7.971 -0.333,11.681c-0.126,3.528 -0.898,7.432 -0.461,10.58c0.406,2.925 1.63,7.209 3.081,8.307c0.231,0.174 -1.215,1.263 -1.877,2.542c-0.487,0.941 -0.825,2.556 -0.993,3.881c-0.221,1.755 -0.383,4.43 -0.335,6.648c0.057,2.67 0.52,6.972 0.678,9.371c0.11,1.673 0.421,3.441 0.269,5.023c-0.148,1.534 -0.443,3.254 -1.182,4.469c-0.74,1.216 -2.751,2.138 -3.257,2.824c-0.259,0.351 -0.204,1.387 0.221,1.289c0.882,-0.202 3.752,-1.157 5.07,-2.504c1.433,-1.464 2.915,-3.958 3.526,-6.279c0.617,-2.349 0.159,-5.208 0.18,-7.812c0.03,-3.707 0.101,-11.312 0,-14.428c-0.052,-1.626 0.718,-2.777 1.38,-3.439c0.205,-0.205 0.976,-0.965 1.175,-1.275c0.106,-0.163 0.139,-0.429 0.02,-0.584c-0.248,-0.322 -1.22,-0.74 -1.511,-1.35c-0.414,-0.869 -0.868,-2.54 -0.973,-3.864c-0.179,-2.246 -0.151,-7.121 -0.101,-9.61c0.035,-1.778 0.311,-3.576 0.398,-5.322c0.086,-1.716 0.313,-3.487 0.126,-5.152c-0.186,-1.655 -0.456,-3.387 -1.248,-4.837c-0.793,-1.45 -2.293,-2.915 -3.505,-3.861c-1.099,-0.858 -3.085,-1.707 -3.767,-1.816c-0.397,-0.063 -0.321,1.163 -0.321,1.163Z" style="fill:#fff;stroke:#fff;stroke-width:0.41px;"/><path d="M13.147,25.324c0,0 -3.169,2.484 -3.546,4.355c-0.538,2.673 0.19,7.971 0.316,11.682c0.119,3.527 0.851,7.431 0.437,10.579c-0.385,2.925 -1.546,7.21 -2.922,8.307c-0.219,0.175 1.153,1.263 1.78,2.542c0.463,0.941 0.783,2.556 0.942,3.881c0.21,1.755 0.363,4.43 0.318,6.648c-0.054,2.67 -0.494,6.972 -0.643,9.371c-0.104,1.674 -0.399,3.441 -0.255,5.023c0.14,1.534 0.419,3.254 1.121,4.469c0.701,1.216 2.608,2.139 3.088,2.824c0.245,0.351 0.193,1.387 -0.21,1.29c-0.836,-0.203 -3.557,-1.158 -4.807,-2.505c-1.359,-1.464 -2.764,-3.958 -3.343,-6.279c-0.586,-2.348 -0.151,-5.207 -0.171,-7.812c-0.029,-3.707 -0.096,-11.312 0,-14.427c0.049,-1.626 -0.681,-2.778 -1.309,-3.44c-0.194,-0.204 -0.925,-0.964 -1.114,-1.274c-0.1,-0.164 -0.132,-0.43 -0.019,-0.585c0.236,-0.322 1.157,-0.74 1.433,-1.349c0.392,-0.869 0.823,-2.541 0.923,-3.865c0.17,-2.246 0.142,-7.121 0.095,-9.609c-0.033,-1.779 -0.294,-3.577 -0.377,-5.323c-0.082,-1.716 -0.297,-3.487 -0.12,-5.152c0.177,-1.655 0.433,-3.387 1.184,-4.837c0.751,-1.45 2.174,-2.915 3.323,-3.861c1.042,-0.858 2.926,-1.707 3.572,-1.815c0.376,-0.064 0.304,1.162 0.304,1.162Z" style="fill:#fff;stroke:#fff;stroke-width:0.41px;"/></g></svg>