<?xml version="1.0" encoding="UTF-8" standalone="no"?><!DOCTYPE svg PUBLIC "-//W3C//DTD SVG 1.1//EN" "http://www.w3.org/Graphics/SVG/1.1/DTD/svg11.dtd"><svg width="100%" height="100%" viewBox="0 0 24 24" version="1.1" xmlns="http://www.w3.org/2000/svg" xmlns:xlink="http://www.w3.org/1999/xlink" xml:space="preserve" style="fill-rule:evenodd;clip-rule:evenodd;stroke-linejoin:round;stroke-miterlimit:1.41421;"><path d="M0,0l0,24l24,0l0,-24l-24,0Zm8,19l-3,0l0,-11l3,0l0,11Zm-1.5,-12.268c-0.966,0 -1.75,-0.79 -1.75,-1.764c0,-0.974 0.784,-1.764 1.75,-1.764c0.966,0 1.75,0.79 1.75,1.764c0,0.974 -0.783,1.764 -1.75,1.764Zm13.5,12.268l-3,0l0,-5.604c0,-3.368 -4,-3.113 -4,0l0,5.604l-3,0l0,-11l3,0l0,1.765c1.397,-2.586 7,-2.777 7,2.476l0,6.759Z" style="fill:#fff;fill-rule:nonzero;"/></svg>