<?xml version="1.0" encoding="UTF-8" standalone="no"?><!DOCTYPE svg PUBLIC "-//W3C//DTD SVG 1.1//EN" "http://www.w3.org/Graphics/SVG/1.1/DTD/svg11.dtd"><svg width="100%" height="100%" viewBox="0 0 900 1000" version="1.1" xmlns="http://www.w3.org/2000/svg" xmlns:xlink="http://www.w3.org/1999/xlink" xml:space="preserve" style="fill-rule:evenodd;clip-rule:evenodd;stroke-linecap:round;stroke-linejoin:round;stroke-miterlimit:1.5;"><rect x="-107.213" y="-27.309" width="1061.63" height="1051.87" style="fill:#112b4d;"/><g><ellipse cx="115.468" cy="856.806" rx="27.425" ry="25.275" style="fill:none;stroke:#cf3f00;stroke-width:3.87px;"/><text x="103.68px" y="869.525px" style="font-family:'ArialMT', 'Arial', sans-serif;font-size:36.517px;fill:#cf3f00;">S</text></g><g><ellipse cx="114.571" cy="940.189" rx="27.425" ry="25.275" style="fill:none;stroke:#f0cd38;stroke-width:3.87px;"/><text x="102.783px" y="952.907px" style="font-family:'ArialMT', 'Arial', sans-serif;font-size:36.517px;fill:#f0cd38;">S</text></g><text x="177.01px" y="863.172px" style="font-family:'ArialMT', 'Arial', sans-serif;font-size:28.374px;fill:#cf3f00;">GRAPHIC LINE</text><text x="178.743px" y="948.76px" style="font-family:'ArialMT', 'Arial', sans-serif;font-size:28.399px;fill:#fee27d;">CODING LINE</text><g><ellipse cx="715.167" cy="127.367" rx="12.888" ry="12.702" style="fill:#f0cd38;stroke:#000;stroke-width:0.39px;"/><ellipse cx="716.568" cy="220.294" rx="12.888" ry="12.702" style="fill:#f0cd38;stroke:#000;stroke-width:0.39px;"/><ellipse cx="716.101" cy="319.292" rx="12.888" ry="12.702" style="fill:#f0cd38;stroke:#000;stroke-width:0.39px;"/><ellipse cx="717.035" cy="418.757" rx="12.888" ry="12.702" style="fill:#f0cd38;stroke:#000;stroke-width:0.39px;"/><ellipse cx="716.101" cy="607.88" rx="12.888" ry="12.702" style="fill:#f0cd38;stroke:#000;stroke-width:0.39px;"/><ellipse cx="716.101" cy="686.798" rx="12.888" ry="12.702" style="fill:#f0cd38;stroke:#000;stroke-width:0.39px;"/><ellipse cx="717.502" cy="768.517" rx="12.888" ry="12.702" style="fill:#f0cd38;stroke:#000;stroke-width:0.39px;"/><text x="580.146px" y="133.751px" style="font-family:'ArialMT', 'Arial', sans-serif;font-size:22.278px;fill:#fff;">W<tspan x="600.77px 613.161px " y="133.751px 133.751px ">or</tspan>dpress</text><text x="627.59px" y="223.652px" style="font-family:'ArialMT', 'Arial', sans-serif;font-size:22.278px;fill:#fff;">React</text><text x="602.635px" y="324.816px" style="font-family:'ArialMT', 'Arial', sans-serif;font-size:22.278px;fill:#fff;">Node Js</text><text x="590.326px" y="423.814px" style="font-family:'ArialMT', 'Arial', sans-serif;font-size:22.278px;fill:#fff;">Gatsby js</text><text x="556.461px" y="615.963px" style="font-family:'ArialMT', 'Arial', sans-serif;font-size:22.278px;fill:#fff;">React Native</text><text x="597.143px" y="693.051px" style="font-family:'ArialMT', 'Arial', sans-serif;font-size:22.278px;fill:#fff;">Firebase</text><text x="595.593px" y="775.088px" style="font-family:'ArialMT', 'Arial', sans-serif;font-size:22.278px;fill:#fff;">Meteor js</text><path d="M715.735,127.598l0.467,638.816" style="fill:none;stroke:#f0cd38;stroke-width:3.87px;"/></g><g><path d="M597.573,512.027l116.556,0.598" style="fill:none;stroke:#cf3f00;stroke-width:3.87px;"/><ellipse cx="331.878" cy="376.823" rx="12.888" ry="12.702" style="fill:#cf3f00;"/><ellipse cx="270.611" cy="296.877" rx="12.888" ry="12.702" style="fill:#cf3f00;stroke:#000;stroke-width:0.39px;"/><path d="M267.622,297.105l63.509,75.754" style="fill:none;stroke:#cf3f00;stroke-width:3.87px;"/><ellipse cx="397.721" cy="452.472" rx="12.888" ry="12.702" style="fill:#cf3f00;"/><ellipse cx="596.949" cy="509.722" rx="12.888" ry="12.702" style="fill:#cf3f00;"/><ellipse cx="716.494" cy="514.056" rx="12.888" ry="13.15" style="fill:#cf3f00;"/><path d="M332.064,377.424l63.509,75.754" style="fill:none;stroke:#cf3f00;stroke-width:3.87px;"/><path d="M398.094,455.46l198.463,55.57" style="fill:none;stroke:#cf3f00;stroke-width:3.87px;"/><text x="80.883px" y="302.26px" style="font-family:'ArialMT', 'Arial', sans-serif;font-size:21.935px;fill:#fff;">Aﬃnity Designer</text><text x="177.415px" y="392.516px" style="font-family:'ArialMT', 'Arial', sans-serif;font-size:21.935px;fill:#fff;">Illustrator</text><text x="267.372px" y="476.496px" style="font-family:'ArialMT', 'Arial', sans-serif;font-size:21.935px;fill:#fff;">After Eﬀect</text><text x="761.707px" y="519.215px" style="font-family:'ArialMT', 'Arial', sans-serif;font-size:21.935px;fill:#fff;">Unity</text><text x="468.207px" y="539.735px" style="font-family:'ArialMT', 'Arial', sans-serif;font-size:21.935px;fill:#fff;">Cinema 4d</text></g><ellipse cx="143.71" cy="78.961" rx="58.955" ry="55.161" style="fill:none;stroke:#fff;stroke-width:3.87px;"/><text x="118.37px" y="106.719px" style="font-family:'ArialMT', 'Arial', sans-serif;font-size:79.696px;fill:#fff;">S</text><text x="214.34px" y="82.171px" style="font-family:'ArialMT', 'Arial', sans-serif;font-size:20px;fill:#fff;">KILS MAP</text></svg>