<?xml version="1.0" encoding="UTF-8" standalone="no"?>
<!DOCTYPE svg PUBLIC "-//W3C//DTD SVG 1.1//EN" "http://www.w3.org/Graphics/SVG/1.1/DTD/svg11.dtd">
<svg width="100%" height="100%" viewBox="0 0 900 1000" version="1.1" xmlns="http://www.w3.org/2000/svg" xmlns:xlink="http://www.w3.org/1999/xlink" xml:space="preserve" style="fill-rule:evenodd;clip-rule:evenodd;stroke-linecap:round;stroke-linejoin:round;stroke-miterlimit:1.5;">
    <g transform="matrix(1,0,0,0.714286,0,0)">
        <rect x="-107.213" y="-38.233" width="1061.63" height="1472.62" style="fill:rgb(17,43,77);"/>
    </g>
    <g transform="matrix(1,0,0,1,-2.60592,-54.7231)">
        <g transform="matrix(0.266955,0,0,0.255458,75.2742,876.782)">
            <ellipse cx="160.325" cy="136.019" rx="102.734" ry="98.939" style="fill:none;stroke:rgb(207,63,0);stroke-width:14.8px;"/>
        </g>
        <g transform="matrix(1.54474,0,0,1.52154,-89.0774,729.28)">
            <text x="126.47px" y="128.139px" style="font-family:'ArialMT', 'Arial', sans-serif;font-size:24px;fill:rgb(207,63,0);">S</text>
        </g>
    </g>
    <g transform="matrix(1,0,0,1,-3.50249,28.6591)">
        <g transform="matrix(0.266955,0,0,0.255458,75.2742,876.782)">
            <ellipse cx="160.325" cy="136.019" rx="102.734" ry="98.939" style="fill:none;stroke:rgb(240,205,56);stroke-width:14.8px;"/>
        </g>
        <g transform="matrix(1.54474,0,0,1.52154,-89.0774,729.28)">
            <text x="126.47px" y="128.139px" style="font-family:'ArialMT', 'Arial', sans-serif;font-size:24px;fill:rgb(240,205,56);">S</text>
        </g>
    </g>
    <g transform="matrix(1.41869,0,0,1.41869,-96.4656,-436.894)">
        <text x="192.765px" y="916.382px" style="font-family:'ArialMT', 'Arial', sans-serif;font-size:20px;fill:rgb(207,63,0);">GRAPHIC LINE</text>
    </g>
    <g transform="matrix(1.41995,0,0,1.41995,-94.9744,-352.457)">
        <text x="192.765px" y="916.382px" style="font-family:'ArialMT', 'Arial', sans-serif;font-size:20px;fill:rgb(254,226,125);">CODING LINE</text>
    </g>
    <g transform="matrix(1.28665,0,0,1.28665,-101.852,-12.8305)">
        <g transform="matrix(0.75,0,0,0.781609,528.767,-158.665)">
            <ellipse cx="206.09" cy="298.552" rx="17.185" ry="16.251" style="fill:rgb(240,205,56);stroke:black;stroke-width:0.39px;"/>
        </g>
        <g transform="matrix(0.75,0,0,0.781609,530.168,-65.7374)">
            <ellipse cx="206.09" cy="298.552" rx="17.185" ry="16.251" style="fill:rgb(240,205,56);stroke:black;stroke-width:0.39px;"/>
        </g>
        <g transform="matrix(0.75,0,0,0.781609,529.701,33.2604)">
            <ellipse cx="206.09" cy="298.552" rx="17.185" ry="16.251" style="fill:rgb(240,205,56);stroke:black;stroke-width:0.39px;"/>
        </g>
        <g transform="matrix(0.75,0,0,0.781609,530.635,132.725)">
            <ellipse cx="206.09" cy="298.552" rx="17.185" ry="16.251" style="fill:rgb(240,205,56);stroke:black;stroke-width:0.39px;"/>
        </g>
        <g transform="matrix(0.75,0,0,0.781609,529.701,321.848)">
            <ellipse cx="206.09" cy="298.552" rx="17.185" ry="16.251" style="fill:rgb(240,205,56);stroke:black;stroke-width:0.39px;"/>
        </g>
        <g transform="matrix(0.75,0,0,0.781609,529.701,400.766)">
            <ellipse cx="206.09" cy="298.552" rx="17.185" ry="16.251" style="fill:rgb(240,205,56);stroke:black;stroke-width:0.39px;"/>
        </g>
        <g transform="matrix(0.75,0,0,0.781609,531.102,482.486)">
            <ellipse cx="206.09" cy="298.552" rx="17.185" ry="16.251" style="fill:rgb(240,205,56);stroke:black;stroke-width:0.39px;"/>
        </g>
        <g transform="matrix(1.85652,0,0,1.85652,-381.525,-39.8103)">
            <text x="500.85px" y="65.112px" style="font-family:'BerlinSansFB-Reg', 'Berlin Sans FB', sans-serif;font-size:12px;fill:white;">Wordpress</text>
        </g>
        <g transform="matrix(1.85652,0,0,1.85652,-343.407,50.0909)">
            <text x="500.85px" y="65.112px" style="font-family:'BerlinSansFB-Reg', 'Berlin Sans FB', sans-serif;font-size:12px;fill:white;">React</text>
        </g>
        <g transform="matrix(1.85652,0,0,1.85652,-359.035,151.255)">
            <text x="500.85px" y="65.112px" style="font-family:'BerlinSansFB-Reg', 'Berlin Sans FB', sans-serif;font-size:12px;fill:white;">Node Js</text>
        </g>
        <g transform="matrix(1.85652,0,0,1.85652,-371.345,250.253)">
            <text x="500.85px" y="65.112px" style="font-family:'BerlinSansFB-Reg', 'Berlin Sans FB', sans-serif;font-size:12px;fill:white;">Gatsby js</text>
        </g>
        <g transform="matrix(1.85652,0,0,1.85652,-405.209,442.402)">
            <text x="500.85px" y="65.112px" style="font-family:'BerlinSansFB-Reg', 'Berlin Sans FB', sans-serif;font-size:12px;fill:white;">React Native</text>
        </g>
        <g transform="matrix(1.85652,0,0,1.85652,-364.527,519.49)">
            <text x="500.85px" y="65.112px" style="font-family:'BerlinSansFB-Reg', 'Berlin Sans FB', sans-serif;font-size:12px;fill:white;">Firebase</text>
        </g>
        <g transform="matrix(1.85652,0,0,1.85652,-366.077,601.527)">
            <text x="500.85px" y="65.112px" style="font-family:'BerlinSansFB-Reg', 'Berlin Sans FB', sans-serif;font-size:12px;fill:white;">Meteor js</text>
        </g>
        <path d="M683.902,74.918L684.369,713.734" style="fill:none;stroke:rgb(240,205,56);stroke-width:3px;"/>
    </g>
    <g transform="matrix(1.1895,0,0,1.1895,-34.5135,25.2028)">
        <g transform="matrix(0.75,0,0,0.781609,145.477,90.7911)">
            <ellipse cx="206.09" cy="298.552" rx="17.185" ry="16.251" style="fill:rgb(207,63,0);"/>
        </g>
        <g transform="matrix(0.75,0,0,0.781609,84.7714,13.3695)">
            <ellipse cx="206.09" cy="298.552" rx="17.185" ry="16.251" style="fill:rgb(207,63,0);stroke:black;stroke-width:0.42px;"/>
        </g>
        <g transform="matrix(0.999628,-0.0272726,0.0272726,0.999628,-10.2136,7.47293)">
            <path d="M240.086,243.076L300.231,321.527" style="fill:none;stroke:rgb(207,63,0);stroke-width:3.25px;"/>
        </g>
        <g transform="matrix(0.75,0,0,0.781609,211.32,166.44)">
            <ellipse cx="206.09" cy="298.552" rx="17.185" ry="16.251" style="fill:rgb(207,63,0);"/>
        </g>
        <g transform="matrix(0.75,0,0,0.781609,268.332,226.323)">
            <ellipse cx="206.09" cy="298.552" rx="17.185" ry="16.251" style="fill:rgb(207,63,0);"/>
        </g>
        <g transform="matrix(0.75,0,0,0.809196,530.093,219.788)">
            <ellipse cx="206.09" cy="298.552" rx="17.185" ry="16.251" style="fill:rgb(207,63,0);"/>
        </g>
        <g transform="matrix(0.999049,-0.0436043,0.0436043,0.999049,49.7743,92.3675)">
            <path d="M240.086,243.076L300.231,321.527" style="fill:none;stroke:rgb(207,63,0);stroke-width:3.25px;"/>
        </g>
        <g transform="matrix(1.8279,0,0,1.8279,-112.189,-95.1763)">
            <text x="89.814px" y="188.908px" style="font-family:'BerlinSansFB-Reg', 'Berlin Sans FB', sans-serif;font-size:12px;fill:white;">Afﬁnity Designer</text>
        </g>
        <g transform="matrix(1.8279,0,0,1.8279,5.50832,-12.9164)">
            <text x="89.814px" y="188.908px" style="font-family:'BerlinSansFB-Reg', 'Berlin Sans FB', sans-serif;font-size:12px;fill:white;">Illustrator</text>
        </g>
        <g transform="matrix(1.8279,0,0,1.8279,53.4037,60.5481)">
            <text x="89.814px" y="188.908px" style="font-family:'BerlinSansFB-Reg', 'Berlin Sans FB', sans-serif;font-size:12px;fill:white;">After Effect</text>
        </g>
        <g transform="matrix(1.8279,0,0,1.8279,553.434,122.545)">
            <text x="89.814px" y="188.908px" style="font-family:'BerlinSansFB-Reg', 'Berlin Sans FB', sans-serif;font-size:12px;fill:white;">Unity</text>
        </g>
        <g transform="matrix(1.8279,0,0,1.8279,107.841,125.453)">
            <text x="89.814px" y="188.908px" style="font-family:'BerlinSansFB-Reg', 'Berlin Sans FB', sans-serif;font-size:12px;fill:white;">Cinema 4d</text>
        </g>
        <g transform="matrix(1.44056,-0.0676491,0.0469085,0.998899,-366.435,-3.53148)">
            <path d="M530.372,497.088L715.56,513.098" style="fill:none;stroke:rgb(207,63,0);stroke-width:2.62px;"/>
        </g>
        <g transform="matrix(0.840239,0.0275552,-0.0275552,0.840239,43.9872,-32.8785)">
            <path d="M397.702,499.722L468.415,572.77" style="fill:none;stroke:rgb(207,63,0);stroke-width:3.87px;"/>
        </g>
    </g>
    <g transform="matrix(0.573864,0,0,0.557522,51.7054,3.12727)">
        <ellipse cx="160.325" cy="136.019" rx="102.734" ry="98.939" style="fill:none;stroke:white;stroke-width:6.83px;"/>
    </g>
    <g transform="matrix(3.32068,0,0,3.32068,-301.596,-318.788)">
        <text x="126.47px" y="128.139px" style="font-family:'ArialMT', 'Arial', sans-serif;font-size:24px;fill:white;">S</text>
    </g>
    <g transform="matrix(1,0,0,1,-2.60592,-54.7231)">
        <text x="216.946px" y="136.894px" style="font-family:'ArialMT', 'Arial', sans-serif;font-size:20px;fill:white;">KILS MAP</text>
    </g>
</svg>
