<?xml version="1.0" encoding="UTF-8" standalone="no"?><!DOCTYPE svg PUBLIC "-//W3C//DTD SVG 1.1//EN" "http://www.w3.org/Graphics/SVG/1.1/DTD/svg11.dtd"><svg width="100%" height="100%" viewBox="0 0 1920 1080" version="1.1" xmlns="http://www.w3.org/2000/svg" xmlns:xlink="http://www.w3.org/1999/xlink" xml:space="preserve" style="fill-rule:evenodd;clip-rule:evenodd;stroke-linecap:round;stroke-linejoin:round;stroke-miterlimit:1.5;"><path d="M-71.08,-19.568c13.948,-60.412 77.017,-136.223 124.181,-138.481c47.164,-2.258 104.864,126.314 158.802,124.934c53.937,-1.38 113.644,-131.08 164.822,-133.213c51.178,-2.132 94.453,117.659 142.244,120.419c47.791,2.759 92.195,-105.993 144.502,-103.861c52.306,2.132 113.77,116.279 169.338,116.655c55.567,0.376 106.745,-119.791 164.069,-114.397c57.324,5.394 132.586,148.139 179.875,146.759c47.289,-1.379 62.216,-148.766 103.86,-155.038c41.645,-6.272 105.617,116.655 146.007,117.408c40.391,0.752 63.722,-111.136 96.335,-112.892c32.613,-1.756 62.592,105.24 99.345,102.355c36.752,-2.885 82.787,-119.415 121.17,-119.665c38.384,-0.251 75.638,120.669 109.129,118.16c33.492,-2.509 75.244,-184.533 91.819,-133.213c23.457,72.627 232.177,517.467 48.92,568.976c-336.042,94.453 -1721.1,65.226 -2065.17,-2.258c-131.706,-25.832 -20.069,-312.46 0.753,-402.648Z" style="fill:#000541;stroke:#000;stroke-width:1px;"/><path d="M-75.596,160.307c13.948,-60.413 77.018,-136.223 124.181,-138.481c47.164,-2.258 104.865,126.313 158.802,124.934c53.937,-1.38 113.644,-131.081 164.822,-133.213c51.178,-2.132 94.453,117.659 142.244,120.418c47.791,2.76 92.195,-105.993 144.502,-103.86c52.306,2.132 113.77,116.278 169.338,116.655c55.568,0.376 106.745,-119.791 164.07,-114.398c57.324,5.394 132.585,148.14 179.874,146.76c47.289,-1.38 62.216,-148.767 103.861,-155.038c41.644,-6.272 105.616,116.655 146.007,117.407c40.39,0.753 63.721,-111.136 96.334,-112.892c32.613,-1.756 62.592,105.241 99.345,102.356c36.753,-2.885 82.787,-119.415 121.171,-119.666c38.383,-0.251 75.637,120.669 109.129,118.16c33.491,-2.508 75.244,-184.532 91.819,-133.212c23.456,72.627 232.176,517.467 48.919,568.976c-336.041,94.453 -1721.1,65.226 -2065.17,-2.258c-131.707,-25.833 -20.07,-312.46 0.752,-402.648Z" style="fill:#00053d;stroke:#000;stroke-width:1px;"/><path d="M-135.805,392.864c13.948,-60.412 77.018,-136.223 124.181,-138.481c47.164,-2.258 104.865,126.314 158.802,124.934c53.937,-1.38 113.644,-131.08 164.822,-133.212c51.178,-2.133 94.453,117.658 142.244,120.418c47.791,2.759 92.195,-105.993 144.502,-103.861c52.306,2.132 113.77,116.279 169.338,116.655c55.568,0.376 106.745,-119.791 164.069,-114.397c57.324,5.394 132.586,148.139 179.875,146.759c47.289,-1.379 62.216,-148.766 103.861,-155.038c41.644,-6.272 105.616,116.655 146.007,117.408c40.39,0.752 63.721,-111.136 96.334,-112.892c32.613,-1.756 62.592,105.24 99.345,102.355c36.753,-2.885 82.787,-119.414 121.171,-119.665c38.383,-0.251 75.637,120.669 109.129,118.16c33.491,-2.509 75.244,-184.533 91.818,-133.213c23.457,72.628 232.177,517.467 48.92,568.976c-336.041,94.453 -1721.1,65.226 -2065.17,-2.258c-131.707,-25.832 -20.07,-312.46 0.752,-402.648Z" style="fill:#121755;stroke:#000;stroke-width:1px;"/><path d="M-55.275,628.432c13.948,-60.413 77.017,-136.223 124.181,-138.481c47.164,-2.258 104.864,126.314 158.801,124.934c53.938,-1.38 113.645,-131.08 164.823,-133.213c51.177,-2.132 94.453,117.659 142.243,120.419c47.791,2.759 92.196,-105.994 144.502,-103.861c52.307,2.132 113.77,116.279 169.338,116.655c55.568,0.376 106.746,-119.791 164.07,-114.397c57.324,5.393 132.585,148.139 179.874,146.759c47.29,-1.379 62.217,-148.766 103.861,-155.038c41.645,-6.272 105.617,116.655 146.007,117.408c40.39,0.752 63.721,-111.136 96.335,-112.892c32.613,-1.756 62.592,105.24 99.344,102.355c36.753,-2.885 82.788,-119.415 121.171,-119.665c38.383,-0.251 75.638,120.669 109.129,118.16c33.491,-2.509 75.244,-184.533 91.819,-133.213c23.456,72.627 232.177,517.467 48.92,568.976c-336.042,94.453 -1721.1,65.226 -2065.17,-2.258c-131.707,-25.832 -20.07,-312.46 0.753,-402.648Z" style="fill:#00053e;stroke:#000;stroke-width:1px;"/><path d="M-59.038,928.443c13.947,-60.413 77.017,-136.223 124.181,-138.481c47.164,-2.258 104.864,126.313 158.801,124.934c53.937,-1.38 113.645,-131.08 164.822,-133.213c51.178,-2.132 94.453,117.659 142.244,120.418c47.791,2.76 92.196,-105.993 144.502,-103.86c52.307,2.132 113.77,116.278 169.338,116.655c55.568,0.376 106.746,-119.791 164.07,-114.397c57.324,5.393 132.585,148.139 179.874,146.759c47.29,-1.38 62.216,-148.766 103.861,-155.038c41.645,-6.272 105.617,116.655 146.007,117.407c40.39,0.753 63.721,-111.135 96.334,-112.892c32.614,-1.756 62.593,105.241 99.345,102.356c36.753,-2.885 82.788,-119.415 121.171,-119.666c38.383,-0.251 75.638,120.669 109.129,118.161c33.491,-2.509 75.244,-184.533 91.819,-133.213c23.456,72.627 232.177,517.467 48.92,568.976c-336.042,94.453 -1721.1,65.226 -2065.17,-2.258c-131.707,-25.833 -20.07,-312.46 0.753,-402.648Z" style="fill:#0d1248;stroke:#000;stroke-width:1px;"/></svg>